<?xml version="1.0" encoding="UTF-8" standalone="no"?>
<svg version="1.1" xmlns="http://www.w3.org/2000/svg" xmlns:xlink="http://www.w3.org/1999/xlink" width="479.279" height="488.516">
	<path id="dp_path001" transform="matrix(1,0,0,1,0,91.6987)" fill="black" stroke="none" stroke-width="0" d="M 180.557,83.9293 C 95.524,224.179 104.359,212.031 93.316,202.092 C 87.7933,197.123 81.168,193.257 78.4067,193.257 C 75.6467,193.809 56.8733,219.209 36.9947,250.683 L 0,308.107 L 17.6693,324.672 C 102.703,405.84 225.835,419.644 342.341,361.115 C 362.771,350.624 395.348,338.476 413.569,334.059 C 432.344,330.193 450.013,324.12 452.773,321.359 C 457.191,316.941 478.725,197.675 479.277,175.588 C 479.277,170.619 475.412,162.336 470.443,157.367 C 459.952,147.428 436.761,150.188 394.796,166.201 C 380.44,172.275 366.636,176.692 364.428,176.692 C 361.667,176.692 332.955,136.937 299.824,88.3467 C 266.695,39.756 237.983,0 235.773,0 C 233.565,0 208.717,38.1 180.557,83.9293 Z M 364.98,237.431 C 384.305,252.891 390.931,286.02 376.575,296.512 C 355.041,311.972 308.107,288.229 308.107,261.173 C 308.107,245.713 326.328,226.387 340.684,226.387 C 346.207,226.387 357.249,231.356 364.98,237.431 Z M 294.303,240.191 C 294.303,242.952 288.229,246.817 280.499,247.369 C 252.891,251.235 234.669,286.573 256.204,294.855 C 268.351,299.825 286.02,288.781 286.02,276.081 C 286.02,270.008 288.781,265.039 291.541,265.039 C 294.855,265.039 297.064,272.216 297.064,280.499 C 297.064,292.095 293.199,298.168 283.26,302.585 C 252.891,316.389 230.804,305.899 230.804,278.843 C 230.804,263.381 267.247,230.804 281.603,233.013 C 288.781,234.117 294.303,236.879 294.303,240.191 Z M 108.224,288.781 C 109.88,318.599 110.432,320.255 126.997,324.672 C 151.845,330.745 155.157,344.549 130.863,339.58 C 94.972,331.851 92.764,328.537 92.764,289.333 C 92.764,262.829 94.42,253.443 99.9413,255.1 C 103.807,256.756 107.12,270.008 108.224,288.781 Z M 216.448,268.352 C 230.252,281.604 226.939,302.585 209.269,320.807 C 191.048,339.028 172.827,341.237 157.919,327.433 C 139.145,310.316 148.532,279.947 177.244,267.799 C 200.435,257.86 205.957,257.86 216.448,268.352 Z "/>
	<path id="dp_path002" transform="matrix(1,0,0,1,325.085,329.129)" fill="black" stroke="none" stroke-width="0" d="M 6.212,6.62533 C -2.07067,14.908 -2.07067,34.7853 6.212,43.068 C 10.0773,46.9333 20.016,49.6947 28.2987,49.6947 C 41.5507,49.6947 43.76,47.4853 43.76,34.2333 C 43.76,18.7733 29.4027,0 18.36,0 C 15.0467,0 10.0773,2.76 6.212,6.62533 Z "/>
	<path id="dp_path003" transform="matrix(1,0,0,1,164.683,368.548)" fill="black" stroke="none" stroke-width="0" d="M 8.696,7.51467 C -2.89867,19.1107 -2.89867,41.1973 8.696,45.6147 C 24.1573,51.688 45.1387,34.0187 42.9307,16.9013 C 40.7213,-0.768 22.5,-5.73733 8.696,7.51467 Z "/>
	<path id="dp_path004" transform="matrix(1,0,0,1,236.621,5.00091)" fill="none" fill-rule="evenodd" stroke="black" stroke-width="10" d="M 34.9027,0 C 54.1787,0 69.8053,15.624 69.8053,34.896 C 69.8053,54.168 54.1787,69.792 34.9027,69.792 C 15.6267,69.792 0,54.168 0,34.896 C 0,15.624 15.6267,0 34.9027,0 Z "/>
	<text id="dp_text005" transform="matrix(1.00001,0,0,1,254.793,54.8583)" xml:space="preserve" fill="black" font-family="Arial Black" font-size="43" font-weight="700" x="0" y="0">R</text>
</svg>